# This file uses centimeters as units for non-parametric coordinates.

mtllib lllve.mtl
g default
v -10.814176 -0.276555 2.749892
v 10.814176 -0.276555 2.749892
v -10.814176 0.723445 2.749892
v 10.814176 0.723445 2.749892
v -10.814176 0.723445 -2.749892
v 10.814176 0.723445 -2.749892
v -10.814176 -0.276555 -2.749892
v 10.814176 -0.276555 -2.749892
vt 0.001891 0.998008
vt 0.001891 0.668528
vt 0.331371 0.668528
vt 0.331371 0.998008
vt 0.338705 0.668528
vt 0.668185 0.668528
vt 0.668185 0.998008
vt 0.338705 0.998008
vt -0.044519 0.084780
vt 1.051410 0.084780
vt 1.051410 0.248685
vt -0.044519 0.248685
vt 0.282360 0.335260
vt 0.611840 0.335260
vt 0.611840 0.664740
vt 0.282360 0.664740
vt -0.607435 0.385389
vt 1.525498 0.385389
vt 1.525498 0.483457
vt -0.607435 0.483457
vt 0.098743 0.766320
vt 0.098743 0.596092
vt 1.087173 0.596092
vt 1.087173 0.766320
vn 0.000000 0.000000 1.000000
vn 0.000000 0.000000 1.000000
vn 0.000000 0.000000 1.000000
vn 0.000000 0.000000 1.000000
vn 0.000000 1.000000 0.000000
vn 0.000000 1.000000 0.000000
vn 0.000000 1.000000 0.000000
vn 0.000000 1.000000 0.000000
vn 0.000000 0.000000 -1.000000
vn 0.000000 0.000000 -1.000000
vn 0.000000 0.000000 -1.000000
vn 0.000000 0.000000 -1.000000
vn 0.000000 -1.000000 0.000000
vn 0.000000 -1.000000 0.000000
vn 0.000000 -1.000000 0.000000
vn 0.000000 -1.000000 0.000000
vn 1.000000 0.000000 0.000000
vn 1.000000 0.000000 0.000000
vn 1.000000 0.000000 0.000000
vn 1.000000 0.000000 0.000000
vn -1.000000 0.000000 0.000000
vn -1.000000 0.000000 0.000000
vn -1.000000 0.000000 0.000000
vn -1.000000 0.000000 0.000000
s off
g pCube1
usemtl phong1SG
f 1/17/1 2/18/2 4/19/3 3/20/4
f 3/9/5 4/10/6 6/11/7 5/12/8
f 5/21/9 6/22/10 8/23/11 7/24/12
f 7/13/13 8/14/14 2/15/15 1/16/16
f 2/1/17 8/2/18 6/3/19 4/4/20
f 7/5/21 1/6/22 3/7/23 5/8/24
